<svg width="107" height="76" viewBox="0 0 107 76" fill="none" xmlns="http://www.w3.org/2000/svg">
<g id="Layer_1" clip-path="url(#clip0_233_1661)">
<path id="Vector" d="M16.9152 75.9997C16.1362 75.9102 15.3837 75.6636 14.7037 75.2751C14.0237 74.8865 13.4304 74.3641 12.9602 73.7398C11.6934 72.2544 10.7799 70.5038 10.288 68.6184C10.2522 68.428 10.2331 68.2349 10.2308 68.0412C9.58533 69.3358 9.20479 70.745 9.11133 72.1871C9.11133 72.3741 9.1522 72.7968 9.23392 73.4471C9.35394 73.8866 9.56013 74.2982 9.84061 74.6581C10.1211 75.0181 10.4703 75.3193 10.8683 75.5445C10.1762 75.754 9.45867 75.8688 8.73546 75.8859C8.31146 75.8893 7.89095 75.8092 7.49824 75.6502C7.10553 75.4911 6.74835 75.2562 6.44735 74.9592C5.79361 74.3413 5.4586 73.252 5.45043 71.7075V71.4311C5.4718 69.7862 5.68563 68.1493 6.08774 66.5536C6.49675 64.8575 7.00155 63.1856 7.59958 61.546C8.1716 59.977 8.63736 58.8064 8.99691 58.0179C9.18518 57.7275 9.43338 57.4802 9.725 57.2924C10.0166 57.1046 10.345 56.9806 10.6884 56.9286C11.3187 56.7878 11.9628 56.7169 12.6088 56.7172C12.8376 56.7172 13.238 56.7172 13.81 56.7823C14.3628 56.8157 14.9001 56.9772 15.379 57.2538C14.5782 58.5273 13.761 59.9879 12.9275 61.6354C12.1514 63.1278 11.4638 64.6641 10.8683 66.2365C12.8749 66.1093 14.8081 65.4373 16.4577 64.2936C17.7428 63.4231 18.7271 62.1798 19.2768 60.733C19.4413 60.268 19.527 59.779 19.5302 59.2861C19.5011 58.4541 19.2158 57.651 18.7131 56.9855C18.1492 56.1726 16.899 55.7255 14.9459 55.6279H14.5619C13.0196 55.6495 11.4867 55.8708 10.002 56.2864C8.33538 56.7376 6.78773 57.5449 5.46679 58.652C4.05658 59.8426 3.09901 61.478 2.75373 63.2856C2.05492 62.7485 1.50865 62.0397 1.16847 61.2289C0.895023 60.571 0.74809 59.8678 0.735352 59.156C0.816518 57.9018 1.32365 56.7122 2.17358 55.7824C3.48177 54.3629 5.13294 53.2995 6.97035 52.6932C9.36432 51.7799 11.9079 51.3168 14.4719 51.3275C16.5055 51.2878 18.5168 51.7545 20.3228 52.6851C21.1575 53.1354 21.861 53.7927 22.365 54.5932C22.869 55.3937 23.1564 56.3102 23.1993 57.2538V57.9529C23.2298 59.6387 22.7945 61.3005 21.9408 62.7572C21.0818 64.1863 19.8694 65.373 18.4189 66.204C16.8937 67.0967 15.2093 67.6874 13.4586 67.9436C13.9128 68.9866 14.5971 69.9146 15.4607 70.6588C16.2603 71.3702 17.2316 71.8632 18.2799 72.0896C18.5738 72.1639 18.8756 72.2021 19.1788 72.2033C19.9069 72.1947 20.6199 71.9956 21.2463 71.6262C21.2907 71.7174 21.313 71.8176 21.3116 71.9188C21.2251 72.4296 20.9958 72.9057 20.6497 73.2927C20.1385 73.9646 19.5425 74.5684 18.8764 75.0893C18.329 75.5812 17.6458 75.8983 16.9152 75.9997Z" fill="white"/>
<path id="Vector_2" d="M32.4824 74.3092H32.4007C30.6683 74.1195 29.7067 73.0059 29.516 70.9681C29.0368 71.7573 28.4032 72.4429 27.6529 72.9842C27.0658 73.4203 26.3586 73.6671 25.6263 73.6914C25.1206 73.7183 24.615 73.6363 24.144 73.4512C23.673 73.266 23.2476 72.9819 22.897 72.6183C21.8485 71.3808 21.324 69.7865 21.4342 68.1717C21.4544 67.4296 21.5336 66.6902 21.6712 65.9605C21.8781 64.8965 22.2562 63.8726 22.7908 62.9283C23.3443 61.8722 24.1223 60.9484 25.0707 60.2213C25.9953 59.5215 27.1286 59.1495 28.2903 59.1645C30.1698 59.1645 31.2593 60.0208 31.559 61.7334L31.9921 60.7741C32.1407 60.4622 32.3621 60.1903 32.6379 59.981C32.9137 59.7717 33.2358 59.6311 33.5773 59.571C33.9405 59.4988 34.3102 59.4634 34.6806 59.4653C35.1931 59.4782 35.7027 59.5464 36.2005 59.6685C36.8172 59.804 37.4024 60.0551 37.9247 60.4083C37.3422 61.2578 36.839 62.1585 36.4212 63.0991C35.841 64.3103 35.3098 65.5947 34.7868 66.9523C34.3519 68.0937 33.9995 69.2646 33.7327 70.456C33.6728 70.7671 33.6373 71.0824 33.6264 71.399C33.6264 71.8542 33.7572 72.0818 34.0186 72.0818C34.8467 72.0818 35.9363 70.9275 37.2873 68.6188C37.9165 67.562 38.3169 66.871 38.4722 66.5458C38.5484 66.432 38.6057 66.3751 38.6438 66.3751C38.7174 66.3751 38.7501 66.4483 38.7501 66.6109C38.6238 67.8627 38.225 69.0722 37.5815 70.1552C36.9501 71.2851 36.1198 72.2929 35.13 73.1305C34.4157 73.8231 33.4774 74.2409 32.4824 74.3092ZM26.7622 72.0818C27.2525 72.0412 27.7673 71.5371 28.323 70.5779C28.9215 69.5084 29.401 68.3772 29.7531 67.2043C30.13 66.0642 30.3392 64.8759 30.3741 63.6762C30.3741 62.8633 30.1207 62.4243 29.6059 62.3918C29.3136 62.4708 29.0401 62.6071 28.8015 62.7928C28.5629 62.9785 28.3642 63.2097 28.2168 63.473C27.7134 64.2352 27.302 65.0538 26.991 65.9117C26.6346 66.8343 26.3612 67.7864 26.1739 68.757C26.0519 69.3566 25.9863 69.9662 25.9777 70.5779C25.9777 70.773 25.9777 71.0819 26.0431 71.4965C26.0519 71.5832 26.0785 71.6671 26.1214 71.7431C26.1642 71.8191 26.2224 71.8854 26.2922 71.938C26.3619 71.9907 26.4419 72.0284 26.527 72.049C26.6121 72.0695 26.7005 72.0724 26.7867 72.0574L26.7622 72.0818Z" fill="white"/>
<path id="Vector_3" d="M47.8125 74.39C47.5053 74.3719 47.205 74.2917 46.93 74.1543C46.5804 74.0041 46.2923 73.7405 46.1128 73.4064C45.639 72.5797 45.3937 71.6428 45.4019 70.6912C45.4468 69.2242 45.6634 67.7674 46.0474 66.3503C46.1046 66.1226 46.1537 65.8869 46.2027 65.643C44.7796 67.845 43.5074 70.1399 42.3947 72.5122C42.0106 73.3251 41.7164 73.8779 41.5366 74.1787C41.2244 74.3137 40.8883 74.3855 40.5478 74.39C40.1991 74.3692 39.8564 74.2895 39.5346 74.1543C39.1438 74.0168 38.8102 73.7537 38.5866 73.4064C37.9202 72.211 37.5794 70.8631 37.5979 69.4963C37.5979 69.3906 37.5979 68.9353 37.5979 68.1143C37.687 66.9448 37.9062 65.7888 38.2517 64.6675C38.5903 63.4204 39.0078 62.1959 39.5018 61.0012C39.6458 60.6853 39.8671 60.4104 40.1454 60.2016C40.4238 59.9929 40.7505 59.8569 41.0954 59.8062C41.4272 59.7475 41.7635 59.7176 42.1005 59.7168C42.6517 59.7302 43.1998 59.8039 43.7348 59.9363C44.3662 60.0699 44.9656 60.3239 45.4999 60.6842C44.6806 61.8275 43.9848 63.0537 43.4243 64.3423C42.5317 66.2635 41.9129 68.2992 41.5857 70.3905L41.8227 69.8783C42.2803 68.7944 42.8686 67.5507 43.5877 66.147C44.2728 64.7636 45.0939 63.4511 46.0392 62.2287C46.8161 61.1648 47.8779 60.3394 49.1036 59.8469C49.4265 59.7338 49.7664 59.676 50.1088 59.6762C51.0455 59.7193 51.9405 60.0743 52.6502 60.6842C51.8181 61.8208 51.1189 63.0481 50.5663 64.3423C49.6734 66.2608 49.0651 68.2981 48.7604 70.3905L48.8176 70.2848C48.9974 69.9433 49.3815 69.2361 49.9944 68.1793C50.6072 67.1225 51.3427 65.9356 52.217 64.6512C53.0347 63.4318 53.959 62.2865 54.9791 61.2288C55.7284 60.3762 56.7018 59.7485 57.7901 59.416H58.1333C58.4967 59.4162 58.8565 59.4881 59.1918 59.6277C59.527 59.7672 59.8311 59.9716 60.0864 60.2289C60.2854 60.4066 60.4454 60.6232 60.5565 60.8652C60.6676 61.1071 60.7273 61.3693 60.732 61.6353C60.7277 61.9305 60.6694 62.2224 60.5603 62.497C59.9556 63.7082 59.3836 65.0333 58.8279 66.4803C58.3447 67.7176 57.9461 68.9859 57.6349 70.2766C57.5481 70.6337 57.4987 70.9988 57.4877 71.366C57.4877 71.8375 57.6185 72.0732 57.8963 72.0732C58.1922 72.0267 58.4757 71.9214 58.7298 71.7636C58.984 71.6058 59.2035 71.3987 59.3754 71.1546C60.4446 69.8318 61.3806 68.4078 62.1701 66.903C62.3335 66.5454 62.448 66.3665 62.5379 66.3665C62.6278 66.3665 62.6441 66.4397 62.6441 66.6023C62.5178 67.8541 62.119 69.0635 61.4755 70.1466C60.8441 71.2765 60.0138 72.2842 59.024 73.1219C58.3056 73.818 57.3608 74.236 56.36 74.3006H56.3927C55.8718 74.2865 55.3653 74.1264 54.9317 73.8388C54.498 73.5512 54.1548 73.1477 53.9412 72.6748C53.6055 71.8663 53.444 70.9966 53.4673 70.1222C53.4673 69.8295 53.4673 69.2523 53.5817 68.3906C53.7454 67.2082 54.019 66.0435 54.3989 64.9114C52.5917 67.4605 50.9539 70.1245 49.4959 72.8861C49.1445 73.4958 48.8993 73.9267 48.7359 74.1706C48.446 74.3045 48.132 74.3791 47.8125 74.39Z" fill="white"/>
<path id="Vector_4" d="M66.8608 74.0083C66.1207 73.9869 65.3868 73.8666 64.679 73.6506C63.7516 73.3396 62.9737 72.6962 62.4971 71.8459C61.9164 70.7155 61.6351 69.4565 61.6799 68.1878C61.6916 67.2647 61.8067 66.3459 62.0232 65.4482C62.2733 64.4002 62.6898 63.3986 63.2571 62.4811C63.8139 61.5218 64.5686 60.6906 65.4716 60.0423C66.3587 59.4161 67.4238 59.0886 68.5114 59.1075C69.3962 59.057 70.2687 59.3319 70.9629 59.8797C71.5592 60.3687 71.997 61.022 72.2214 61.7576C72.392 62.2466 72.4803 62.7602 72.4829 63.2777C72.4829 64.5215 72.0825 65.3182 71.2735 65.6759C70.9441 65.8315 70.584 65.912 70.2194 65.9116C69.8694 65.9079 69.522 65.8503 69.1897 65.7409C69.6633 65.4645 70.0333 65.0421 70.2438 64.5378C70.4201 64.1404 70.5146 63.712 70.5217 63.2777C70.5217 63.2046 70.5217 63.042 70.5217 62.7737C70.5217 62.5055 70.3011 62.3673 69.9089 62.3348C69.5357 62.4499 69.1901 62.6398 68.8936 62.8929C68.597 63.1459 68.3558 63.4568 68.1846 63.8062C67.5671 64.7658 67.0987 65.8127 66.7954 66.9115C66.5773 67.6789 66.462 68.4716 66.4523 69.269C66.4649 69.7485 66.5113 70.2266 66.5911 70.6997C66.681 71.3419 67.1631 71.7972 68.0375 72.0736C68.1922 72.1139 68.3516 72.133 68.5114 72.1305C69.0303 72.0999 69.537 71.9614 69.9987 71.724C71.0883 71.2417 72.3059 69.6809 73.6515 67.0416L73.9783 66.4969C74.0437 66.375 74.1009 66.3181 74.1499 66.3181C74.1989 66.3181 74.2562 66.3913 74.2562 66.5538C74.128 67.7786 73.7319 68.9606 73.0957 70.0168C72.6488 70.8474 72.0755 71.6043 71.3961 72.2605C70.5757 73.0241 69.5661 73.5571 68.4706 73.8051C67.9437 73.9346 67.4035 74.0028 66.8608 74.0083Z" fill="white"/>
<path id="Vector_5" d="M76.062 74.366C75.623 74.3436 75.1928 74.2359 74.7954 74.0489C73.537 73.507 72.9077 72.1657 72.9077 70.025C72.9077 69.8136 72.9078 69.2121 72.9895 68.2772C73.1362 66.8256 73.4097 65.3894 73.8067 63.985C74.3079 62.0827 74.8527 60.3404 75.441 58.7579C76.0049 57.1321 76.4542 56.0021 76.7811 55.2461C76.9247 54.9331 77.1439 54.6603 77.419 54.4518C77.6941 54.2433 78.0168 54.1057 78.3583 54.0511C78.7186 53.9786 79.0856 53.9431 79.4532 53.9454C79.9711 53.9591 80.4861 54.0273 80.9895 54.1486C81.6052 54.2826 82.1918 54.5249 82.7219 54.864C82.0389 56.0109 81.4539 57.2128 80.9732 58.4571C80.156 60.3512 79.3878 62.4323 78.6115 64.6841C77.9405 66.5324 77.4373 68.4368 77.108 70.3745L77.1734 70.2689C77.3259 69.9437 77.7018 69.2446 78.3011 68.1715C78.9004 67.0985 79.6276 65.9224 80.4829 64.6434C81.2913 63.4239 82.2074 62.2786 83.2204 61.2211C83.9614 60.3686 84.9262 59.7381 86.0069 59.4001H86.3746C86.738 59.4003 87.0978 59.4723 87.4331 59.6118C87.7684 59.7513 88.0724 59.9557 88.3277 60.213C88.527 60.3869 88.6875 60.6005 88.7987 60.84C88.9099 61.0794 88.9694 61.3394 88.9733 61.6031C88.9693 61.9061 88.9025 62.205 88.7772 62.4811C88.1997 63.6951 87.6304 65.0228 87.0693 66.4644C86.5646 67.6947 86.1442 68.9577 85.8108 70.2445C85.7242 70.6098 85.6749 70.983 85.6637 71.3582C85.6637 71.8134 85.7945 72.041 86.0478 72.041C86.3484 71.9986 86.6369 71.8952 86.8955 71.7371C87.1542 71.5791 87.3774 71.3699 87.5514 71.1224C88.6534 69.8237 89.592 68.3959 90.3462 66.8708C90.5368 66.5131 90.6594 66.3343 90.7138 66.3343C90.7874 66.3343 90.8201 66.4075 90.8201 66.5701C90.6793 67.8199 90.2785 69.027 89.6433 70.1144C89.0273 71.2408 88.2137 72.2485 87.2409 73.0897C86.5274 73.7883 85.5843 74.207 84.5851 74.2684H84.5034C83.9824 74.2543 83.476 74.0942 83.0423 73.8066C82.6087 73.519 82.2654 73.1156 82.0519 72.6426C81.7161 71.8341 81.5546 70.9645 81.5779 70.09C81.5779 69.7974 81.6187 69.2202 81.7005 68.3585C81.8538 67.1742 82.1276 66.0085 82.5176 64.8792C81.5401 66.2061 80.6398 67.5876 79.821 69.017C79.0039 70.4721 78.2847 71.724 77.7208 72.7645L76.9691 74.1384C76.6862 74.2767 76.377 74.3543 76.062 74.366Z" fill="white"/>
<path id="Vector_6" d="M100.749 74.3092H100.659C98.9265 74.1195 97.9649 73.0059 97.7742 70.9681C97.295 71.7573 96.6614 72.4429 95.9111 72.9842C95.324 73.4203 94.6168 73.6671 93.8845 73.6914C93.3788 73.7183 92.8731 73.6363 92.4021 73.4512C91.9311 73.266 91.5058 72.9819 91.1552 72.6183C90.1066 71.3808 89.5822 69.7865 89.6924 68.1717C89.7126 67.4296 89.7918 66.6902 89.9294 65.9605C90.1363 64.8965 90.5143 63.8726 91.0489 62.9283C91.6025 61.8722 92.3804 60.9484 93.3288 60.2213C94.2534 59.5215 95.3868 59.1495 96.5485 59.1645C98.428 59.1645 99.5039 60.0208 99.7762 61.7334L100.209 60.7741C100.358 60.4622 100.579 60.1903 100.855 59.981C101.131 59.7717 101.453 59.6311 101.795 59.571C102.158 59.4988 102.528 59.4634 102.898 59.4653C103.41 59.4782 103.92 59.5464 104.418 59.6685C105.035 59.804 105.62 60.0551 106.142 60.4083C105.559 61.2578 105.056 62.1585 104.638 63.0991C104.066 64.313 103.522 65.5974 103.004 66.9523C102.569 68.0937 102.217 69.2646 101.95 70.456C101.89 70.7671 101.855 71.0824 101.844 71.399C101.844 71.8542 101.974 72.0818 102.236 72.0818C103.053 72.0818 104.164 70.9275 105.505 68.6188C106.134 67.562 106.534 66.871 106.69 66.5458C106.766 66.432 106.823 66.3751 106.861 66.3751C106.935 66.3751 106.967 66.4483 106.967 66.6109C106.841 67.8627 106.442 69.0722 105.799 70.1552C105.167 71.2851 104.337 72.2929 103.347 73.1305C102.646 73.8127 101.727 74.2297 100.749 74.3092ZM95.0285 72.0818C95.5188 72.0412 96.0418 71.5371 96.5893 70.5779C97.1878 69.5084 97.6673 68.3772 98.0193 67.2043C98.3962 66.0642 98.6054 64.8759 98.6404 63.6762C98.6404 62.8633 98.3871 62.4243 97.8723 62.3918C97.58 62.4708 97.3064 62.6071 97.0679 62.7928C96.8293 62.9785 96.6305 63.2097 96.4831 63.473C95.9798 64.2352 95.5684 65.0538 95.2574 65.9117C94.901 66.8343 94.6275 67.7864 94.4402 68.757C94.3183 69.3566 94.2525 69.9662 94.244 70.5779C94.244 70.773 94.2441 71.0819 94.3094 71.4965C94.3183 71.5824 94.3447 71.6655 94.387 71.7409C94.4294 71.8162 94.4868 71.8822 94.5556 71.9347C94.6245 71.9872 94.7034 72.0251 94.7875 72.0463C94.8717 72.0674 94.9593 72.0712 95.0449 72.0574L95.0285 72.0818Z" fill="white"/>
<path id="Vector_7" d="M16.2698 75.4878C15.491 75.3973 14.7388 75.1504 14.0589 74.7619C13.379 74.3734 12.7857 73.8515 12.3147 73.2278C11.0488 71.7431 10.1379 69.9921 9.65077 68.1064C9.61277 67.9162 9.59084 67.7231 9.58534 67.5292C8.94163 68.824 8.56383 70.2335 8.474 71.6752C8.4908 72.0968 8.529 72.5174 8.58842 72.9352C8.83408 73.8212 9.42143 74.575 10.2228 75.0325C9.5336 75.2426 8.81872 75.3575 8.09813 75.3739C7.24012 75.3768 6.41532 75.0439 5.80184 74.4472C5.15628 73.8294 4.82127 72.7401 4.80492 71.1955V70.9191C4.82527 69.2736 5.042 67.6363 5.45052 66.0416C5.86065 64.3467 6.36255 62.675 6.95408 61.034C7.49886 59.4732 7.96461 58.2972 8.3514 57.5059C8.54056 57.2146 8.79008 56.9667 9.08319 56.7789C9.37629 56.591 9.70629 56.4675 10.0512 56.4166C10.6787 56.2759 11.32 56.205 11.9633 56.2052C12.1921 56.2052 12.5925 56.2053 13.1727 56.2703C13.7255 56.3037 14.2628 56.4652 14.7417 56.7418C13.9245 58.0262 13.1074 59.4814 12.2902 61.1235C11.5107 62.6142 10.823 64.1508 10.2309 65.7246C12.2358 65.5949 14.1676 64.9262 15.8203 63.7898C17.1045 62.9167 18.0863 61.6703 18.6314 60.2211C18.7984 59.7564 18.8867 59.2675 18.8929 58.7741C18.8638 57.9421 18.5785 57.139 18.0757 56.4735C17.5201 55.6606 16.2616 55.2135 14.3168 55.116H13.9245C12.385 55.137 10.8547 55.3584 9.37286 55.7744C7.70757 56.229 6.16062 57.0359 4.83764 58.14C3.42433 59.328 2.46607 60.9646 2.12459 62.7737C1.41071 62.2397 0.847714 61.5312 0.490251 60.717C0.2196 60.0585 0.0754509 59.3553 0.0653076 58.644C0.143246 57.389 0.65081 56.1985 1.50353 55.2704C2.8103 53.8492 4.46194 52.7856 6.3003 52.1813C8.69428 51.268 11.238 50.8049 13.802 50.8156C15.8329 50.7758 17.8416 51.2426 19.6447 52.1732C20.4809 52.6224 21.186 53.2793 21.6914 54.0798C22.1969 54.8804 22.4856 55.7974 22.5294 56.7418V57.4409C22.5561 59.1263 22.121 60.7871 21.2709 62.2452C20.4061 63.6727 19.1915 64.8587 17.7407 65.6921C16.2183 66.5845 14.5368 67.1752 12.7887 67.4317C13.2399 68.4764 13.9245 69.405 14.7907 70.1469C15.5882 70.8567 16.5565 71.3496 17.6018 71.5776C17.8985 71.6514 18.203 71.6896 18.5088 71.6914C19.2346 71.6844 19.9454 71.4852 20.5681 71.1142C20.6125 71.2054 20.6349 71.3056 20.6335 71.4069C20.5472 71.9161 20.3209 72.3916 19.9797 72.7807C19.4661 73.4507 18.8705 74.0543 18.2065 74.5773C17.665 75.0636 16.9913 75.3803 16.2698 75.4878Z" fill="white"/>
<path id="Vector_8" d="M31.8779 73.7731H31.7962C30.0556 73.5861 29.0995 72.4724 28.9115 70.4319C28.4319 71.2234 27.7951 71.9094 27.0402 72.448C26.4561 72.884 25.7516 73.1308 25.0218 73.1553C24.5159 73.1832 24.01 73.1018 23.5388 72.9165C23.0676 72.7313 22.6425 72.4466 22.2925 72.0822C21.2409 70.8463 20.716 69.2507 20.8297 67.6355C20.8457 66.8931 20.925 66.1534 21.0667 65.4244C21.2736 64.3603 21.6517 63.3365 22.1863 62.3922C22.7353 61.3354 23.5108 60.4113 24.458 59.6852C25.3857 58.9853 26.5216 58.6134 27.6858 58.6284C29.5653 58.6284 30.6358 59.4413 30.9545 61.1972L31.3794 60.2379C31.5343 59.9213 31.7638 59.6466 32.0483 59.4371C32.3329 59.2277 32.6641 59.0896 33.0137 59.0348C33.3742 58.9631 33.7411 58.9277 34.1087 58.9291C34.6239 58.942 35.1363 59.0102 35.6368 59.1324C36.2512 59.2671 36.8338 59.5183 37.3528 59.8721C36.7734 60.7235 36.2703 61.6239 35.8493 62.5629C35.3045 63.7768 34.7597 65.0612 34.2149 66.4161C33.78 67.5575 33.4276 68.7284 33.1608 69.9198C33.0968 70.2303 33.0613 70.5459 33.0545 70.8628C33.0545 71.3181 33.1854 71.5456 33.4387 71.5456C34.2722 71.5456 35.3617 70.3913 36.7073 68.0826C37.3338 66.9987 37.726 66.3077 37.884 66.0097C37.9548 65.8958 38.0121 65.839 38.0557 65.839C38.1292 65.839 38.17 65.9202 38.17 66.0747C38.0396 67.3294 37.6382 68.5412 36.9933 69.6272C36.3623 70.7549 35.5319 71.7601 34.5418 72.5943C33.8242 73.2917 32.879 73.7099 31.8779 73.7731ZM26.1577 71.5456C26.6398 71.505 27.1628 71.001 27.7185 70.0418C28.3099 68.9688 28.7891 67.8384 29.1485 66.6681C29.5216 65.5271 29.7306 64.3393 29.7696 63.1401C29.7696 62.3271 29.5081 61.8882 28.9524 61.8638C28.6602 61.9405 28.3866 62.0751 28.1479 62.2595C27.9092 62.4438 27.7103 62.6742 27.5632 62.9368C27.0595 63.6977 26.6506 64.5166 26.3456 65.3756C25.9932 66.2994 25.7198 67.2512 25.5284 68.2208C25.4088 68.8206 25.3459 69.4303 25.3405 70.0418C25.3405 70.2369 25.3405 70.5458 25.3977 70.9604C25.4042 71.0503 25.4298 71.1379 25.4727 71.2174C25.5155 71.2969 25.5747 71.3665 25.6463 71.4218C25.718 71.477 25.8007 71.5166 25.8887 71.5379C25.9768 71.5593 26.0685 71.5619 26.1577 71.5456Z" fill="white"/>
<path id="Vector_9" d="M47.1751 73.8783C46.8677 73.8611 46.5673 73.7809 46.2926 73.6426C45.9408 73.4958 45.6517 73.2312 45.4754 72.8947C45.0016 72.0679 44.7564 71.1311 44.7645 70.1795C44.8054 68.7121 45.0221 67.2548 45.4101 65.8385C45.47 65.6109 45.519 65.3752 45.5571 65.1313C44.137 67.3336 42.8675 69.6285 41.7573 72.0004C41.365 72.8134 41.0791 73.3662 40.8911 73.667C40.5794 73.8037 40.2429 73.8756 39.9023 73.8783C39.5562 73.8573 39.2163 73.7776 38.8972 73.6426C38.5051 73.5074 38.171 73.2437 37.9493 72.8947C37.2793 71.7007 36.9382 70.3518 36.9605 68.9845C36.9605 68.8789 36.9605 68.4236 36.9605 67.6026C37.0414 66.4321 37.2609 65.2751 37.6143 64.1558C37.9529 62.9087 38.3705 61.6841 38.8646 60.4895C39.0065 60.1738 39.2262 59.8988 39.5033 59.6899C39.7804 59.481 40.1059 59.3451 40.4498 59.2945C40.7844 59.2362 41.1234 59.2062 41.4631 59.2051C42.0143 59.219 42.5623 59.2927 43.0974 59.4246C43.7288 59.5582 44.3282 59.8122 44.8626 60.1725C44.0432 61.3158 43.3474 62.5419 42.7869 63.8306C41.8866 65.7488 41.2674 67.7856 40.9483 69.8787L41.1853 69.3666C41.6429 68.2827 42.2286 67.039 42.9422 65.6353C43.6273 64.2519 44.4485 62.9394 45.3937 61.717C46.1706 60.6531 47.2324 59.8277 48.4581 59.3352C48.784 59.2227 49.1264 59.165 49.4714 59.1644C50.4056 59.2082 51.2978 59.5632 52.0046 60.1725C51.1787 61.313 50.48 62.5396 49.9208 63.8306C49.0352 65.7519 48.4273 67.7881 48.1149 69.8787L48.1802 69.773C48.3518 69.4316 48.7441 68.7244 49.3488 67.6676C49.9535 66.6108 50.7053 65.4239 51.5797 64.1395C52.3947 62.9182 53.3192 61.7728 54.3417 60.7171C55.0882 59.8652 56.0589 59.2373 57.1446 58.9043H57.4878C57.8524 58.9047 58.2133 58.9768 58.5498 59.1163C58.8864 59.2558 59.1919 59.46 59.449 59.7172C59.6465 59.8961 59.8055 60.113 59.9164 60.3547C60.0274 60.5964 60.088 60.858 60.0946 61.1236C60.0903 61.4188 60.0321 61.7108 59.9229 61.9853C59.2785 63.2832 58.7003 64.6127 58.1905 65.9686C57.7036 67.2046 57.305 68.4731 56.9975 69.7649C56.9046 70.121 56.8526 70.4865 56.8423 70.8542C56.8423 71.3257 56.9812 71.5615 57.2509 71.5615C57.5481 71.5156 57.8329 71.4106 58.0885 71.2528C58.344 71.0949 58.5649 70.8875 58.7381 70.6429C59.8072 69.3201 60.7433 67.8961 61.5328 66.3913C61.6853 66.0336 61.8079 65.8548 61.9005 65.8548C61.9659 65.8548 62.0067 65.9361 62.0067 66.0905C61.8763 67.3452 61.475 68.557 60.8301 69.643C60.1991 70.7708 59.3686 71.7759 58.3785 72.6101C57.6609 73.3075 56.7157 73.7257 55.7146 73.7889H55.6328C55.1125 73.7719 54.6073 73.6107 54.1742 73.3235C53.7411 73.0362 53.3971 72.6343 53.1813 72.163C52.85 71.3561 52.6888 70.4901 52.7073 69.6186C52.7073 69.3178 52.7074 68.7407 52.8299 67.879C52.9936 66.6966 53.2672 65.5318 53.6471 64.3997C51.8426 66.9506 50.2049 69.6144 48.7441 72.3744C48.4009 72.9841 48.1475 73.415 47.9923 73.6588C47.7352 73.7799 47.4585 73.8542 47.1751 73.8783Z" fill="white"/>
<path id="Vector_10" d="M66.1988 73.4963C65.4586 73.4759 64.7246 73.3556 64.0169 73.1386C63.0868 72.8325 62.3074 72.1879 61.8352 71.3339C61.2506 70.2049 60.9692 68.9448 61.018 67.6758C61.0297 66.7527 61.1447 65.8338 61.3611 64.9362C61.6143 63.8878 62.0336 62.8863 62.6033 61.9691C63.1576 61.0079 63.9128 60.1763 64.8179 59.5303C65.7039 58.902 66.7698 58.5742 67.8577 58.5954C68.7422 58.5465 69.6142 58.8212 70.3092 59.3677C70.9026 59.8592 71.3397 60.5116 71.5676 61.2455C71.7357 61.7349 71.8213 62.2486 71.8209 62.7657C71.8209 64.0095 71.4206 64.8061 70.6197 65.1638C70.2903 65.3194 69.9302 65.3999 69.5655 65.3996C69.2155 65.3959 68.8682 65.3383 68.5359 65.2289C69.0094 64.9525 69.3795 64.5301 69.5901 64.0257C69.7635 63.6275 69.8578 63.1996 69.8679 62.7657C69.8679 62.7007 69.8679 62.53 69.8679 62.2617C69.8679 61.9934 69.6391 61.8553 69.255 61.8309C68.683 61.9122 68.1028 62.3999 67.5226 63.2941C66.9102 64.2594 66.4422 65.3082 66.1335 66.4076C65.9146 67.1721 65.7992 67.9621 65.7902 68.7569C65.8067 69.2362 65.8531 69.7141 65.9292 70.1877C66.0272 70.8299 66.5093 71.2851 67.3837 71.5615C67.5383 71.6019 67.6978 71.621 67.8577 71.6184C68.3739 71.5877 68.8778 71.4492 69.3367 71.212C70.4263 70.7351 71.6466 69.1742 72.9976 66.5295L73.3163 65.9849C73.3899 65.863 73.4471 65.806 73.488 65.806C73.5289 65.806 73.5942 65.8873 73.5942 66.0418C73.4738 67.2682 73.0772 68.4519 72.4338 69.5049C71.9896 70.3372 71.416 71.0944 70.7341 71.7485C69.917 72.5121 68.9099 73.0452 67.8168 73.293C67.2872 73.4227 66.7442 73.4909 66.1988 73.4963Z" fill="white"/>
<path id="Vector_11" d="M75.4247 73.8542C74.9857 73.8318 74.5554 73.7241 74.158 73.5372C72.8887 72.9952 72.2568 71.6539 72.2622 69.5132C72.2622 69.3018 72.2622 68.7003 72.3521 67.7654C72.4949 66.3133 72.7684 64.8767 73.1693 63.4732C73.6596 61.571 74.2044 59.8286 74.8036 58.2461C75.3675 56.6203 75.8169 55.4903 76.1438 54.7343C76.2867 54.4223 76.5045 54.1502 76.7781 53.9418C77.0517 53.7334 77.3727 53.5952 77.7127 53.5393C78.0732 53.4676 78.4401 53.4321 78.8078 53.4336C79.3257 53.4469 79.8407 53.5151 80.344 53.6369C80.9602 53.7693 81.5471 54.0117 82.0764 54.3522C81.3939 55.4981 80.8115 56.7002 80.3359 57.9453C79.5187 59.8394 78.7015 61.9206 77.9742 64.1723C77.3032 66.0207 76.7999 67.9251 76.4706 69.8628L76.5278 69.7571C76.6913 69.4319 77.0672 68.7328 77.6637 67.6598C78.2602 66.5867 78.9793 65.4161 79.8455 64.1317C80.6539 62.9122 81.5701 61.7669 82.5831 60.7093C83.3226 59.8552 84.2879 59.2244 85.3696 58.8884H85.7292C86.0939 58.8879 86.455 58.9595 86.7917 59.0991C87.1284 59.2386 87.4339 59.4433 87.6904 59.7013C87.8882 59.8765 88.0476 60.0903 88.1586 60.3295C88.2697 60.5686 88.33 60.828 88.3359 61.0913C88.3319 61.3943 88.2651 61.6932 88.1398 61.9693C87.5514 63.1779 86.9821 64.5056 86.4319 65.9526C85.945 67.1886 85.5464 68.4572 85.2389 69.749C85.1523 70.1143 85.103 70.4875 85.0917 70.8627C85.0917 71.3179 85.2143 71.5455 85.4758 71.5455C85.776 71.5021 86.0643 71.3983 86.3228 71.2404C86.5813 71.0825 86.8048 70.8737 86.9794 70.6269C88.0815 69.3281 89.0199 67.9004 89.7741 66.3753C89.9648 66.0176 90.0874 65.8388 90.1419 65.8388C90.2154 65.8388 90.2481 65.9201 90.2481 66.0746C90.1071 67.3281 89.7034 68.5383 89.0632 69.627C88.4504 70.7509 87.6395 71.756 86.6689 72.5942C85.9546 73.2916 85.0119 73.71 84.0131 73.7729H83.9231C83.4015 73.7617 82.8939 73.6028 82.4597 73.3148C82.0255 73.0269 81.6827 72.6218 81.4716 72.1471C81.1365 71.3413 80.9751 70.4744 80.9977 69.6027C80.9977 69.3019 80.9977 68.7247 81.1121 67.863C81.2704 66.6796 81.5441 65.5143 81.9293 64.3837C80.9461 65.7067 80.0454 67.0885 79.2326 68.5215C78.3937 69.9793 77.6937 71.2285 77.1325 72.269L76.3807 73.6428C76.0809 73.7806 75.7549 73.8527 75.4247 73.8542Z" fill="white"/>
<path id="Vector_12" d="M100.103 73.7731H100.021C98.2809 73.5861 97.3248 72.4724 97.1369 70.4319C96.6572 71.2234 96.0205 71.9094 95.2655 72.448C94.682 72.8849 93.9771 73.1319 93.2471 73.1553C92.7413 73.1832 92.2354 73.1018 91.7642 72.9165C91.2931 72.7313 90.8678 72.4466 90.5178 72.0822C89.4662 70.8463 88.9413 69.2507 89.0551 67.6355C89.0752 66.8934 89.1545 66.154 89.2921 65.4244C89.499 64.3603 89.877 63.3365 90.4116 62.3922C90.9606 61.3354 91.7361 60.4113 92.6833 59.6852C93.611 58.9853 94.7469 58.6134 95.9111 58.6284C97.7906 58.6284 98.8611 59.4413 99.1798 61.1972L99.6047 60.2379C99.7596 59.9213 99.9891 59.6466 100.274 59.4371C100.558 59.2277 100.889 59.0896 101.239 59.0348C101.6 58.9631 101.966 58.9277 102.334 58.9291C102.849 58.942 103.362 59.0102 103.862 59.1324C104.477 59.2671 105.059 59.5183 105.578 59.8721C104.999 60.7235 104.496 61.6239 104.075 62.5629C103.503 63.7768 102.958 65.0612 102.44 66.4161C102.005 67.5575 101.653 68.7284 101.386 69.9198C101.322 70.2303 101.287 70.5459 101.28 70.8628C101.28 71.3181 101.411 71.5456 101.664 71.5456C102.498 71.5456 103.587 70.3913 104.933 68.0826C105.565 66.9987 105.957 66.3077 106.109 66.0097C106.183 65.8958 106.24 65.839 106.289 65.839C106.338 65.839 106.395 65.9202 106.395 66.0747C106.265 67.3294 105.864 68.5412 105.219 69.6272C104.588 70.7549 103.757 71.7601 102.767 72.5943C102.05 73.2917 101.104 73.7099 100.103 73.7731ZM94.383 71.5456C94.8733 71.505 95.3882 71.001 95.9438 70.0418C96.539 68.9706 97.0183 67.8398 97.3739 66.6681C97.7469 65.5271 97.956 64.3393 97.9949 63.1401C97.9949 62.3271 97.7334 61.8882 97.1778 61.8638C96.8863 61.9398 96.6134 62.0741 96.376 62.2586C96.1385 62.4431 95.9414 62.6739 95.7967 62.9368C95.2869 63.6954 94.8751 64.5148 94.571 65.3756C94.2185 66.2994 93.9451 67.2512 93.7538 68.2208C93.6342 68.8206 93.5713 69.4303 93.5659 70.0418C93.5659 70.2369 93.5659 70.5458 93.6231 70.9604C93.6291 71.0529 93.6552 71.1429 93.6995 71.2244C93.7439 71.3059 93.8054 71.377 93.88 71.4326C93.9545 71.4882 94.0402 71.5271 94.1312 71.5466C94.2223 71.5661 94.3166 71.5658 94.4076 71.5456H94.383Z" fill="white"/>
<path id="Vector_13" d="M51.7676 26.0378C52.2497 26.111 52.5357 26.1435 52.8217 26.2004C53.534 26.3891 54.2798 26.4155 55.0037 26.2778C55.7276 26.1402 56.4111 25.8419 57.0031 25.4053C57.5952 24.9686 58.0807 24.4047 58.4235 23.7557C58.7663 23.1066 58.9577 22.3889 58.9832 21.6562C59.3591 17.4778 56.3356 14.1773 51.8412 13.8522C46.0475 13.4376 41.8636 16.99 41.0137 22.6967C39.837 30.5821 45.0504 41.5646 56.2702 43.1904C56.8585 43.2799 57.4633 43.2474 58.0435 43.3612C58.3553 43.4685 58.6477 43.625 58.9096 43.8246C58.6726 44.044 58.4602 44.4261 58.1987 44.4667C55.8125 44.8163 53.4019 45.4585 51.0321 45.3528C46.7021 45.1552 42.5641 43.5176 39.2808 40.7024C35.9975 37.8872 33.759 34.0573 32.9237 29.8261C31.4528 22.5911 33.5774 16.4047 38.9217 11.2996C39.2649 10.9744 39.5999 10.6411 39.9268 10.2997C39.9677 10.2997 39.9268 10.1533 39.9268 9.86068C39.5322 9.91586 39.1419 9.99737 38.7583 10.1046C36.5851 10.8971 34.6027 12.1334 32.9388 13.734C31.2749 15.3347 29.9663 17.2641 29.0972 19.3983C28.2282 21.5324 27.818 23.8239 27.8929 26.1253C27.9679 28.4267 28.5263 30.687 29.5324 32.7607C29.6538 32.9642 29.7472 33.1829 29.8103 33.411C29.8426 33.662 29.8426 33.9161 29.8103 34.167C29.5546 34.1937 29.2961 34.1689 29.0503 34.0939C28.0371 33.5574 27.0482 32.9639 26.0431 32.3949C23.1585 30.769 20.2576 29.0944 17.373 27.4117C13.5241 25.1761 13.5241 20.5669 17.373 18.3395C23.0932 15.0878 28.8133 11.7629 34.5335 8.51939C38.0466 6.37033 42.0949 5.24383 46.2191 5.26771C53.3448 5.46281 60.4704 10.7874 62.1946 17.2664C62.8676 19.6062 62.7557 22.1005 61.8759 24.3714C61.3138 25.8036 60.2552 26.9884 58.8912 27.7115C57.5273 28.4346 55.9483 28.6484 54.4397 28.314C53.829 28.2106 53.2579 27.9442 52.7873 27.5434C52.3167 27.1426 51.9643 26.6222 51.7676 26.0378Z" fill="white"/>
<path id="Vector_14" d="M67.0731 35.9233C67.4523 35.8571 67.8264 35.7647 68.1926 35.6469C77.6146 31.8749 81.5616 22.0549 77.3777 12.8851C77.2476 12.4688 77.1761 12.0365 77.1652 11.6007C77.6085 11.676 78.0417 11.8015 78.4563 11.9746C82.2207 14.1099 85.9743 16.2614 89.7169 18.4292C93.3615 20.5428 93.4187 25.2253 89.7986 27.3226C83.9205 30.7314 78.0287 34.0996 72.1233 37.4272C68.6953 39.4796 64.7568 40.5331 60.7564 40.4675C53.5653 40.2318 46.4724 34.9072 44.789 28.4526C44.1801 26.2606 44.2369 23.9383 44.9524 21.7785C45.4486 20.2145 46.5247 18.897 47.962 18.0937C49.3994 17.2905 51.0902 17.0616 52.691 17.4537C53.2633 17.574 53.7927 17.8449 54.2239 18.2382C54.6551 18.6314 54.9723 19.1325 55.1425 19.6893C54.693 19.6405 54.3253 19.6324 53.9984 19.5592C52.8543 19.2423 51.6317 19.3721 50.5806 19.9221C49.5295 20.4721 48.7294 21.4008 48.3437 22.5182C47.7243 24.0653 47.717 25.7884 48.3235 27.3405C48.93 28.8926 50.1052 30.1585 51.6124 30.8832C57.6758 34.0536 64.736 30.4198 65.8637 23.5669C66.5788 19.0265 65.5597 14.3842 63.0068 10.5538C60.454 6.7234 56.5524 3.98226 52.0699 2.86991C51.1138 2.64229 50.1006 2.63415 49.1281 2.45531C48.7488 2.33344 48.3843 2.16986 48.0413 1.96758C48.3253 1.68371 48.6537 1.44761 49.0137 1.26848C53.3051 -0.0385531 57.9166 0.151747 62.0844 1.80791C66.2522 3.46408 69.7264 6.48671 71.9315 10.3753C74.1367 14.2639 74.9407 18.7852 74.2102 23.1903C73.4797 27.5955 71.2587 31.6203 67.9148 34.5983L66.8934 35.5494L67.0731 35.9233Z" fill="white"/>
<path id="Vector_15" d="M54.644 19.3227C54.1701 19.2495 53.8759 19.2251 53.5899 19.1601C52.8782 18.9729 52.1333 18.9476 51.4104 19.0859C50.6875 19.2243 50.0051 19.5228 49.414 19.9593C48.823 20.3958 48.3383 20.9591 47.996 21.6075C47.6536 22.2558 47.4625 22.9725 47.4367 23.7044C47.0526 27.8828 50.0843 31.1913 54.5787 31.5084C60.3724 31.923 64.5563 28.3786 65.4062 22.6638C66.5747 14.7785 61.3203 3.79593 50.1496 2.17009C49.5613 2.08067 48.9484 2.11317 48.3682 1.99936C48.0573 1.89018 47.765 1.73388 47.502 1.53599C47.739 1.3165 47.9596 0.934442 48.2211 0.893796C50.6072 0.54424 53.0179 -0.0979896 55.3877 0.0076902C59.7158 0.208544 63.8512 1.84742 67.1326 4.66224C70.4139 7.47706 72.6517 11.3052 73.488 15.5345C74.9589 22.7695 72.8424 28.9558 67.4899 34.061C67.1467 34.3861 66.8198 34.7276 66.493 35.069C66.493 35.069 66.493 35.2072 66.493 35.4999C66.8855 35.4486 67.2735 35.3671 67.6534 35.256C76.9855 31.5897 81.0222 21.6802 76.8873 12.5999C76.7668 12.395 76.6708 12.1766 76.6013 11.9495C76.5731 11.6983 76.5731 11.4447 76.6013 11.1935C76.8597 11.1668 77.1209 11.1917 77.3695 11.2667C78.3828 11.8113 79.3715 12.3966 80.3685 12.9657C83.2612 14.5915 86.1622 16.2742 89.0386 17.9489C92.8875 20.1925 92.8875 24.8018 89.0386 27.0211C83.3348 30.3107 77.6146 33.584 71.8781 36.8411C68.3656 38.9847 64.3216 40.1109 60.2008 40.0928C53.0751 39.8977 45.9412 34.565 44.217 28.086C43.5482 25.7457 43.66 23.2528 44.5357 20.9811C45.1005 19.5509 46.1597 18.3682 47.5228 17.6455C48.8859 16.9227 50.4635 16.7075 51.9719 17.0384C52.5839 17.1417 53.1561 17.4089 53.6269 17.8114C54.0977 18.2139 54.4493 18.7363 54.644 19.3227Z" fill="white"/>
<path id="Vector_16" d="M39.3385 9.43794C38.9623 9.5051 38.591 9.59742 38.2272 9.71431C28.7971 13.4863 24.8502 23.3145 29.0422 32.4761C29.1663 32.8963 29.235 33.3308 29.2465 33.7687C28.8032 33.6895 28.3701 33.5613 27.9553 33.3866C24.1964 31.2567 20.4429 29.1052 16.6948 26.932C13.0503 24.8184 13.0012 20.136 16.6212 18.0387C22.4967 14.6407 28.3721 11.2507 34.2966 7.93401C37.7242 5.88789 41.6583 4.83489 45.6552 4.89369C52.8545 5.12944 59.9475 10.4541 61.6309 16.9168C62.2353 19.1066 62.1784 21.4249 61.4674 23.5827C60.9628 25.1433 59.8844 26.4567 58.448 27.2601C57.0116 28.0635 55.3232 28.2976 53.7207 27.9156C53.1474 27.7946 52.6174 27.5225 52.1861 27.1278C51.7548 26.733 51.4381 26.2302 51.2692 25.672C51.7186 25.7207 52.0864 25.737 52.4132 25.8102C53.5573 26.1264 54.7796 25.9951 55.8295 25.4434C56.8795 24.8917 57.6775 23.9613 58.0599 22.843C58.6793 21.2959 58.6864 19.5729 58.0799 18.0208C57.4734 16.4686 56.2983 15.2028 54.7912 14.4781C48.7278 11.3077 41.6674 14.9496 40.5316 21.7944C39.8206 26.3333 40.8416 30.9726 43.3939 34.8008C45.9463 38.629 49.8455 41.3692 54.3254 42.4832C55.2896 42.7108 56.2947 42.727 57.2672 42.8978C57.6487 43.0175 58.0139 43.184 58.354 43.3936C58.0687 43.6724 57.7438 43.9079 57.3897 44.0928C53.0995 45.3938 48.4915 45.1996 44.3272 43.5423C40.163 41.8851 36.6918 38.8639 34.4873 34.9783C32.2828 31.0926 31.477 26.575 32.2031 22.172C32.9291 17.7691 35.1436 13.7443 38.4805 10.763L39.5019 9.81999L39.3385 9.43794Z" fill="white"/>
</g>
<defs>
<clipPath id="clip0_233_1661">
<rect width="107" height="76" fill="white"/>
</clipPath>
</defs>
</svg>
